<?xml version="1.0" standalone="no"?>
<!DOCTYPE svg PUBLIC "-//W3C//DTD SVG 20010904//EN"
 "http://www.w3.org/TR/2001/REC-SVG-20010904/DTD/svg10.dtd">
<svg version="1.0" xmlns="http://www.w3.org/2000/svg"
 width="452.000000pt" height="336.000000pt" viewBox="0 0 452.000000 336.000000"
 preserveAspectRatio="xMidYMid meet">

<g transform="translate(0.000000,336.000000) scale(0.100000,-0.100000)"
fill="#000000" stroke="none">
<path d="M3395 3070 c-197 -31 -521 -113 -705 -179 l-55 -20 136 0 c124 -1
147 2 270 34 205 53 367 78 504 79 130 0 170 -11 201 -58 13 -21 13 -31 3 -64
-25 -83 -126 -185 -319 -319 -86 -60 -303 -193 -314 -193 -3 0 -6 105 -6 233
0 194 -3 236 -16 255 l-15 22 -949 0 c-849 0 -950 -2 -964 -16 -14 -14 -16
-84 -16 -619 l0 -603 -22 -6 c-13 -3 -70 -6 -128 -6 -172 0 -231 42 -195 137
22 58 134 174 244 253 l90 65 0 53 c1 40 -2 51 -12 46 -179 -106 -407 -304
-453 -395 -42 -84 -31 -134 39 -171 37 -20 58 -22 167 -23 69 0 158 3 198 8
l72 7 0 -58 c0 -32 5 -63 12 -70 9 -9 122 -12 445 -12 291 0 433 -3 433 -10 0
-30 -32 -81 -55 -90 -15 -6 -77 -10 -140 -10 -97 0 -116 -3 -136 -20 -24 -19
-23 -19 414 -20 428 0 481 4 411 30 -14 6 -76 10 -137 10 -70 0 -121 5 -137
13 -24 12 -53 73 -43 90 2 4 199 7 437 7 l433 0 11 25 c9 18 12 147 12 438 l0
412 59 32 c109 58 324 196 420 269 243 182 342 334 267 409 -57 57 -232 70
-461 35z m-365 -529 l0 -239 -55 -30 c-54 -30 -56 -30 -68 -11 -6 10 -15 19
-20 19 -9 0 -267 -193 -263 -197 1 -2 75 18 165 44 134 38 161 49 156 62 -4 9
-9 21 -11 26 -4 9 70 55 89 55 4 0 7 -142 7 -315 l0 -315 -807 0 c-443 0 -804
2 -801 5 3 3 76 25 164 50 87 24 226 66 307 94 l148 50 11 -25 c6 -13 15 -24
20 -24 12 0 269 162 265 167 -4 3 -251 -31 -305 -43 -19 -4 -21 -8 -12 -24 5
-10 10 -23 10 -29 0 -25 -599 -201 -742 -217 l-58 -7 0 572 0 571 900 0 900 0
0 -239z m-876 -986 c18 -18 11 -41 -14 -55 -33 -18 -65 31 -38 58 16 16 33 15
52 -3z"/>
<path d="M500 821 c0 -9 206 -529 231 -583 11 -26 16 -28 73 -28 58 0 62 2 83
33 12 17 56 115 97 216 73 180 122 269 137 254 4 -4 9 -26 11 -48 l3 -40 63
-3 c51 -2 67 1 89 18 14 11 39 20 56 20 27 0 29 -2 24 -28 -3 -16 -46 -113
-95 -218 -62 -130 -87 -191 -79 -196 7 -4 42 -8 79 -8 64 0 68 1 92 33 39 51
214 413 221 458 4 22 4 61 0 85 l-6 44 -222 -2 -222 -3 -3 -38 c-4 -50 -27
-44 -26 7 l1 36 -77 0 -77 0 -58 -142 c-31 -79 -63 -149 -70 -157 -20 -21 -56
23 -90 111 -15 40 -41 99 -57 131 l-28 57 -75 0 c-41 0 -75 -4 -75 -9z"/>
<path d="M2000 828 c1 -25 200 -590 212 -605 6 -7 32 -13 59 -13 46 0 49 2 72
43 14 23 34 71 46 107 12 36 30 80 41 98 35 58 50 42 100 -108 l45 -135 55 -3
56 -3 23 41 c39 69 168 450 175 518 l7 62 -74 0 -75 0 -41 -112 c-23 -62 -46
-120 -51 -128 -16 -26 -45 17 -87 130 l-40 105 -74 0 -74 0 -41 -119 c-22 -66
-45 -121 -51 -123 -17 -6 -41 30 -73 111 -56 143 -49 136 -135 136 -41 0 -75
-1 -75 -2z"/>
<path d="M2960 526 c0 -221 3 -307 12 -312 17 -11 346 -16 398 -7 l45 9 0 64
0 65 -130 5 c-115 4 -130 7 -133 23 -6 30 26 56 77 62 25 3 70 11 99 17 l53
11 -3 61 -3 61 -110 5 -110 5 -3 28 c-3 23 2 30 30 41 18 7 73 16 123 20 49 4
93 10 98 15 4 4 7 35 5 67 l-3 59 -222 3 -223 2 0 -304z"/>
<path d="M3527 823 c-11 -10 -8 -601 3 -608 16 -10 262 -18 322 -11 105 13
168 79 168 174 0 42 -7 66 -26 100 -25 43 -26 47 -14 103 17 78 8 133 -28 178
-45 56 -99 70 -273 71 -80 0 -149 -3 -152 -7z m275 -170 c23 -21 23 -40 -1
-53 -60 -32 -119 11 -75 54 20 21 53 20 76 -1z m30 -230 c19 -17 24 -58 8 -68
-5 -3 -33 -9 -61 -12 -38 -4 -53 -2 -60 8 -14 22 -11 56 7 73 20 21 83 20 106
-1z"/>
<path d="M1650 481 l0 -58 69 -12 c121 -19 235 -11 251 20 6 9 7 38 4 63 l-7
46 -158 0 -159 0 0 -59z"/>
</g>
</svg>
