<?xml version="1.0" standalone="no"?>
<!DOCTYPE svg PUBLIC "-//W3C//DTD SVG 20010904//EN"
 "http://www.w3.org/TR/2001/REC-SVG-20010904/DTD/svg10.dtd">
<svg version="1.0" xmlns="http://www.w3.org/2000/svg"
 width="452.000000pt" height="112.000000pt" viewBox="0 0 452.000000 112.000000"
 preserveAspectRatio="xMidYMid meet">

<g transform="translate(0.000000,112.000000) scale(0.100000,-0.100000)"
fill="#000000" stroke="none">
<path d="M500 821 c0 -9 206 -529 231 -583 11 -26 16 -28 73 -28 58 0 62 2 83
33 12 17 56 115 97 216 73 180 122 269 137 254 4 -4 9 -26 11 -48 l3 -40 63
-3 c51 -2 67 1 89 18 14 11 39 20 56 20 27 0 29 -2 24 -28 -3 -16 -46 -113
-95 -218 -62 -130 -87 -191 -79 -196 7 -4 42 -8 79 -8 64 0 68 1 92 33 39 51
214 413 221 458 4 22 4 61 0 85 l-6 44 -222 -2 -222 -3 -3 -38 c-4 -50 -27
-44 -26 7 l1 36 -77 0 -77 0 -58 -142 c-31 -79 -63 -149 -70 -157 -20 -21 -56
23 -90 111 -15 40 -41 99 -57 131 l-28 57 -75 0 c-41 0 -75 -4 -75 -9z"/>
<path d="M2000 828 c1 -25 200 -590 212 -605 6 -7 32 -13 59 -13 46 0 49 2 72
43 14 23 34 71 46 107 12 36 30 80 41 98 35 58 50 42 100 -108 l45 -135 55 -3
56 -3 23 41 c39 69 168 450 175 518 l7 62 -74 0 -75 0 -41 -112 c-23 -62 -46
-120 -51 -128 -16 -26 -45 17 -87 130 l-40 105 -74 0 -74 0 -41 -119 c-22 -66
-45 -121 -51 -123 -17 -6 -41 30 -73 111 -56 143 -49 136 -135 136 -41 0 -75
-1 -75 -2z"/>
<path d="M2960 526 c0 -221 3 -307 12 -312 17 -11 346 -16 398 -7 l45 9 0 64
0 65 -130 5 c-115 4 -130 7 -133 23 -6 30 26 56 77 62 25 3 70 11 99 17 l53
11 -3 61 -3 61 -110 5 -110 5 -3 28 c-3 23 2 30 30 41 18 7 73 16 123 20 49 4
93 10 98 15 4 4 7 35 5 67 l-3 59 -222 3 -223 2 0 -304z"/>
<path d="M3527 823 c-11 -10 -8 -601 3 -608 16 -10 262 -18 322 -11 105 13
168 79 168 174 0 42 -7 66 -26 100 -25 43 -26 47 -14 103 17 78 8 133 -28 178
-45 56 -99 70 -273 71 -80 0 -149 -3 -152 -7z m275 -170 c23 -21 23 -40 -1
-53 -60 -32 -119 11 -75 54 20 21 53 20 76 -1z m30 -230 c19 -17 24 -58 8 -68
-5 -3 -33 -9 -61 -12 -38 -4 -53 -2 -60 8 -14 22 -11 56 7 73 20 21 83 20 106
-1z"/>
<path d="M1650 481 l0 -58 69 -12 c121 -19 235 -11 251 20 6 9 7 38 4 63 l-7
46 -158 0 -159 0 0 -59z"/>
</g>
</svg>
