<?xml version="1.0" standalone="no"?>
<!DOCTYPE svg PUBLIC "-//W3C//DTD SVG 20010904//EN"
 "http://www.w3.org/TR/2001/REC-SVG-20010904/DTD/svg10.dtd">
<svg version="1.0" xmlns="http://www.w3.org/2000/svg"
 width="387.000000pt" height="125.000000pt" viewBox="0 0 387.000000 125.000000"
 preserveAspectRatio="xMidYMid meet">

<g transform="translate(0.000000,125.000000) scale(0.100000,-0.100000)"
fill="#000000" stroke="none">
<path d="M1329 1100 c-76 -12 -244 -55 -299 -77 -39 -15 -90 -18 -390 -23
l-345 -5 -5 -285 -5 -285 -73 0 c-76 0 -92 8 -92 49 0 19 68 91 129 136 24 18
32 32 30 48 -4 20 -10 17 -89 -41 -192 -143 -181 -232 27 -212 l73 7 0 -30 c0
-18 6 -32 16 -36 9 -3 101 -6 205 -6 104 0 189 -4 189 -8 0 -19 -27 -32 -69
-33 -26 -1 -57 -5 -71 -9 -14 -5 63 -8 180 -8 117 0 194 3 180 8 -14 4 -45 8
-70 9 -43 1 -70 14 -70 33 0 4 91 9 203 10 l202 3 3 202 2 201 58 32 c144 81
289 204 307 259 5 17 1 29 -14 44 -24 25 -116 32 -212 17z m152 -59 c21 -17
22 -21 10 -49 -7 -18 -32 -48 -54 -68 -48 -44 -216 -154 -234 -154 -10 0 -13
28 -13 114 l0 115 -42 3 c-39 3 -34 5 62 30 130 33 237 37 271 9z m-321 -191
c0 -100 -2 -110 -21 -120 -11 -7 -27 -9 -35 -6 -12 5 -124 -67 -124 -79 0 -2
30 5 67 16 38 10 70 19 72 19 2 0 1 6 -2 14 -3 8 5 18 19 25 l24 11 0 -150 0
-150 -377 1 c-328 0 -373 2 -343 14 41 16 30 19 -20 6 -19 -5 -50 -12 -67 -15
l-33 -5 0 264 0 265 420 0 420 0 0 -110z m-402 -468 c2 -7 -6 -12 -17 -12 -21
0 -27 11 -14 24 9 9 26 2 31 -12z"/>
<path d="M780 575 c-8 -2 -32 -6 -52 -10 -23 -3 -38 -11 -38 -20 0 -8 -32 -24
-85 -41 -46 -16 -83 -30 -80 -32 2 -2 42 9 90 24 62 21 88 25 93 17 5 -8 24
-1 61 22 29 19 56 36 59 39 5 6 -21 6 -48 1z"/>
<path d="M488 463 c7 -3 16 -2 19 1 4 3 -2 6 -13 5 -11 0 -14 -3 -6 -6z"/>
<path d="M1620 590 l0 -240 25 0 25 0 0 240 0 240 -25 0 -25 0 0 -240z"/>
<path d="M1828 673 c-24 -6 -23 -9 18 -113 31 -76 40 -90 59 -90 18 0 29 13
54 65 17 36 35 65 40 65 6 0 11 -28 13 -62 3 -60 4 -63 28 -63 21 0 26 6 34
42 5 24 5 66 0 100 -8 49 -12 58 -32 61 -16 2 -25 -3 -31 -20 l-10 -23 0 23
c-1 39 -71 17 -71 -22 0 -8 -6 -19 -14 -26 -12 -9 -19 -4 -41 29 -14 23 -26
40 -28 40 -1 -1 -10 -3 -19 -6z"/>
<path d="M2112 672 c-9 -6 -12 -34 -10 -103 3 -89 4 -94 25 -97 17 -3 26 3 33
22 12 33 30 33 60 1 34 -36 65 -33 80 8 l13 32 6 -30 c5 -24 11 -30 31 -30 25
0 25 1 28 98 l3 97 -31 0 c-28 0 -30 -2 -30 -39 0 -56 -16 -60 -25 -5 -6 42
-8 45 -33 42 -22 -2 -28 -9 -30 -35 -2 -18 -6 -33 -9 -33 -3 0 -23 18 -43 40
-38 42 -46 45 -68 32z"/>
<path d="M2528 669 c-21 -12 -24 -39 -5 -39 30 -1 40 -20 46 -86 5 -57 9 -69
25 -72 26 -5 36 15 36 75 0 45 4 55 26 69 16 11 24 24 22 38 -3 19 -10 21 -68
23 -36 2 -73 -2 -82 -8z"/>
<path d="M2695 668 c-3 -8 -5 -55 -3 -104 3 -85 4 -89 27 -92 15 -2 28 3 33
12 11 20 32 20 48 1 16 -20 108 -20 134 0 26 20 82 19 90 0 3 -8 17 -15 31
-15 36 0 33 29 -12 122 -56 117 -76 115 -134 -11 -45 -96 -60 -97 -52 -2 7 72
-9 88 -95 97 -49 6 -63 4 -67 -8z"/>
<path d="M3138 664 c-33 -17 -58 -62 -58 -102 0 -64 95 -111 158 -78 57 29 35
60 -33 49 -26 -4 -40 -2 -46 8 -16 25 -10 48 17 66 21 14 29 14 46 4 15 -9 23
-9 34 0 22 18 17 37 -16 54 -36 19 -67 19 -102 -1z"/>
<path d="M3307 672 c-16 -3 -17 -14 -15 -100 3 -85 5 -97 21 -100 11 -2 28 6
39 18 l20 21 22 -20 c21 -20 76 -29 76 -13 0 4 -11 24 -25 44 -31 46 -31 64 0
109 13 20 21 39 18 43 -13 13 -43 5 -71 -19 -36 -30 -42 -31 -42 -6 0 21 -16
29 -43 23z"/>
<path d="M3484 667 c-3 -8 -4 -54 -2 -103 l3 -89 75 0 c71 0 75 1 78 23 3 17
-2 25 -17 29 -24 6 -28 23 -6 23 9 0 15 9 15 25 0 16 -6 25 -15 25 -8 0 -15 5
-15 10 0 6 6 10 14 10 22 0 28 17 16 40 -9 17 -21 20 -76 20 -44 0 -66 -4 -70
-13z"/>
<path d="M3665 668 c-3 -8 -5 -55 -3 -104 3 -84 4 -89 26 -92 13 -2 25 3 28
12 8 20 38 21 54 1 7 -8 26 -15 42 -15 25 0 29 3 22 18 -4 9 -8 47 -9 84 0 84
-11 96 -93 104 -49 6 -63 4 -67 -8z"/>
<path d="M2410 581 c0 -5 -2 -16 -6 -24 -4 -10 5 -16 33 -20 55 -9 85 1 81 27
-3 18 -11 21 -55 24 -30 2 -53 -1 -53 -7z"/>
<path d="M398 225 c-3 -4 6 -37 21 -73 35 -85 54 -91 82 -24 18 43 24 48 45
44 28 -5 28 -1 9 -45 -15 -35 -12 -47 12 -47 16 0 76 117 69 136 -4 10 -24 14
-71 14 -62 0 -66 -1 -84 -31 l-19 -31 -14 28 c-13 28 -37 41 -50 29z"/>
<path d="M721 218 c1 -27 45 -132 56 -136 7 -2 18 8 24 22 15 32 23 33 37 1
17 -37 31 -31 55 28 l22 52 5 -50 5 -50 53 -3 c47 -3 52 -1 52 17 0 16 -7 21
-27 22 -27 0 -27 1 -5 9 28 12 28 38 0 50 -22 8 -22 9 5 9 22 1 28 5 25 19 -3
14 -16 18 -76 20 -67 3 -74 1 -79 -18 -7 -26 -20 -26 -28 0 -3 11 -15 20 -25
20 -10 0 -22 -9 -25 -20 -3 -11 -10 -20 -15 -20 -4 0 -10 9 -13 20 -6 22 -47
29 -46 8z"/>
<path d="M1044 216 c-3 -7 -4 -40 -2 -72 l3 -59 37 -3 c20 -2 47 2 58 8 18 10
20 18 16 63 -3 33 -11 56 -22 64 -24 17 -83 17 -90 -1z"/>
<path d="M640 145 c0 -11 11 -15 40 -15 29 0 40 4 40 15 0 11 -11 15 -40 15
-29 0 -40 -4 -40 -15z"/>
</g>
</svg>
