<?xml version="1.0" standalone="no"?>
<!DOCTYPE svg PUBLIC "-//W3C//DTD SVG 20010904//EN"
 "http://www.w3.org/TR/2001/REC-SVG-20010904/DTD/svg10.dtd">
<svg version="1.0" xmlns="http://www.w3.org/2000/svg"
 width="389.000000pt" height="94.000000pt" viewBox="0 0 389.000000 94.000000"
 preserveAspectRatio="xMidYMid meet">

<g transform="translate(0.000000,94.000000) scale(0.100000,-0.100000)"
fill="#000000" stroke="none">
<path d="M1315 865 c-94 -17 -220 -50 -275 -72 -39 -15 -92 -18 -395 -23
l-350 -5 -3 -287 -2 -288 -66 0 c-71 0 -104 12 -104 37 0 30 42 83 101 129 43
33 59 52 59 70 0 24 0 24 -52 -13 -72 -49 -154 -130 -168 -164 -26 -62 23 -86
156 -76 l73 5 3 -31 3 -32 202 -3 c157 -2 203 -5 203 -15 0 -26 -25 -37 -86
-37 -35 0 -66 -4 -69 -10 -4 -7 63 -10 194 -10 127 0 201 4 201 10 0 6 -28 10
-63 10 -49 0 -68 4 -80 18 -10 10 -17 22 -17 25 0 4 87 7 194 7 107 0 201 3
210 6 14 5 16 33 16 204 l0 197 83 50 c179 110 281 208 275 263 -6 47 -102 61
-243 35z m159 -45 c67 -25 2 -113 -164 -222 l-105 -69 -5 118 -5 118 -45 4
c-43 4 -40 5 65 32 114 29 215 36 259 19z m-314 -203 c0 -110 -1 -114 -24
-125 -15 -7 -27 -7 -33 -1 -6 6 -31 -7 -68 -36 -32 -25 -54 -45 -49 -45 28 1
129 40 133 51 4 15 21 29 34 29 4 0 7 -65 7 -145 l0 -145 -372 1 c-276 1 -364
4 -338 11 19 6 84 26 144 45 78 25 111 32 116 23 5 -8 27 2 71 30 60 39 62 41
29 36 -19 -3 -54 -8 -78 -12 -30 -5 -42 -11 -38 -20 3 -9 -24 -22 -87 -43 -89
-30 -249 -71 -274 -71 -10 0 -13 60 -13 265 l0 265 420 0 420 0 0 -113z m-405
-467 c0 -7 -6 -15 -12 -17 -8 -3 -13 4 -13 17 0 13 5 20 13 18 6 -3 12 -11 12
-18z"/>
<path d="M1622 358 l3 -243 23 -3 22 -3 0 245 0 246 -25 0 -25 0 2 -242z"/>
<path d="M1828 432 c-23 -4 -23 0 20 -107 32 -79 40 -90 61 -90 21 0 31 12 58
69 19 37 37 65 41 61 4 -4 9 -34 12 -68 5 -58 7 -62 29 -62 19 0 27 7 33 30
11 37 2 143 -13 161 -18 21 -39 17 -49 -11 -11 -29 -24 -34 -15 -6 15 49 -49
35 -70 -15 -18 -43 -31 -43 -52 1 -17 37 -28 44 -55 37z"/>
<path d="M2110 414 c-11 -28 -14 -143 -4 -168 10 -26 53 -20 60 9 8 33 37 32
58 -1 13 -18 24 -24 44 -22 36 4 48 47 36 130 -8 59 -11 63 -36 66 -25 3 -28
0 -28 -27 0 -44 -12 -45 -55 -1 -46 47 -62 50 -75 14z"/>
<path d="M2349 433 c-21 -5 -33 -91 -23 -158 6 -42 9 -46 33 -43 26 3 26 4 29
88 3 90 -8 120 -39 113z"/>
<path d="M2538 433 c-27 -7 -22 -40 7 -47 23 -6 25 -11 25 -59 0 -75 8 -97 35
-97 21 0 24 6 30 63 5 49 12 66 32 83 18 16 23 27 18 43 -6 19 -13 21 -68 20
-34 -1 -70 -3 -79 -6z"/>
<path d="M2705 428 c-3 -8 -5 -55 -3 -104 3 -84 4 -89 26 -92 13 -2 25 3 28
12 8 20 38 21 54 1 16 -20 108 -20 134 0 27 20 82 19 90 -1 4 -10 15 -14 33
-12 36 4 34 19 -14 120 -55 116 -76 115 -133 -9 -46 -98 -63 -102 -54 -10 5
54 4 64 -14 80 -28 25 -139 36 -147 15z"/>
<path d="M3153 430 c-31 -13 -63 -68 -63 -107 0 -66 89 -111 156 -79 61 28 39
59 -34 49 -38 -5 -41 -4 -48 22 -6 23 -2 32 16 47 13 11 31 17 39 15 9 -3 22
-6 29 -8 8 -2 19 4 25 13 9 14 8 21 -4 34 -20 19 -86 27 -116 14z"/>
<path d="M3317 432 c-16 -3 -17 -14 -15 -100 3 -85 5 -97 21 -100 11 -2 28 6
39 18 l20 21 22 -20 c21 -20 76 -30 76 -13 0 4 -12 25 -25 47 -31 50 -31 62 0
106 13 20 21 39 18 43 -13 13 -43 5 -73 -20 -30 -26 -31 -26 -37 -6 -6 23 -19
30 -46 24z"/>
<path d="M3494 427 c-3 -8 -4 -54 -2 -103 l3 -89 75 0 c71 0 75 1 78 23 3 17
-2 25 -17 29 -24 6 -28 23 -6 23 9 0 15 9 15 25 0 16 -6 25 -15 25 -8 0 -15 5
-15 10 0 6 6 10 14 10 20 0 29 16 21 40 -6 17 -15 20 -76 20 -49 0 -71 -4 -75
-13z"/>
<path d="M3675 428 c-3 -8 -5 -55 -3 -104 3 -84 4 -89 26 -92 13 -2 25 3 28
12 8 20 38 21 54 1 7 -8 26 -15 42 -15 25 0 29 3 22 18 -5 9 -8 47 -6 83 3 83
-11 98 -97 106 -48 5 -62 3 -66 -9z"/>
<path d="M2417 343 c-4 -3 -7 -14 -7 -23 0 -12 11 -19 39 -24 51 -8 71 1 71
30 0 22 -4 24 -48 24 -27 0 -52 -3 -55 -7z"/>
</g>
</svg>
