<?xml version="1.0" standalone="no"?>
<!DOCTYPE svg PUBLIC "-//W3C//DTD SVG 20010904//EN"
 "http://www.w3.org/TR/2001/REC-SVG-20010904/DTD/svg10.dtd">
<svg version="1.0" xmlns="http://www.w3.org/2000/svg"
 width="394.000000pt" height="103.000000pt" viewBox="0 0 394.000000 103.000000"
 preserveAspectRatio="xMidYMid meet">

<g transform="translate(0.000000,103.000000) scale(0.100000,-0.100000)"
fill="#000000" stroke="none">
<path d="M1379 899 c-74 -11 -242 -54 -299 -76 -39 -15 -90 -18 -390 -23
l-345 -5 -3 -287 -2 -288 -66 0 c-72 0 -104 12 -104 38 0 30 48 90 105 132 41
30 55 47 55 65 l0 25 -52 -37 c-72 -49 -154 -130 -168 -164 -26 -62 23 -86
156 -76 l73 5 3 -31 3 -32 202 -3 c113 -1 203 -6 203 -11 0 -26 -34 -41 -90
-41 -32 0 -62 -4 -65 -10 -4 -7 63 -10 195 -10 132 0 199 3 195 10 -3 6 -33
10 -65 10 -56 0 -90 15 -90 41 0 5 90 10 203 11 l202 3 3 194 c1 107 7 200 12
206 5 6 53 38 106 70 150 92 266 209 250 251 -15 38 -104 51 -227 33z m152
-58 c23 -19 23 -20 7 -54 -21 -43 -82 -95 -201 -170 l-92 -58 -3 120 -3 120
-42 3 c-38 3 -32 5 63 30 131 33 237 37 271 9z m-321 -191 c0 -100 -2 -110
-21 -120 -11 -7 -27 -9 -35 -6 -14 5 -130 -72 -121 -80 1 -2 33 6 69 16 47 15
67 26 71 40 3 11 12 20 21 20 14 0 16 -19 16 -145 l0 -146 -420 2 -420 1 0
264 0 264 420 0 420 0 0 -110z m-404 -461 c10 -17 -13 -36 -27 -22 -12 12 -4
33 11 33 5 0 12 -5 16 -11z"/>
<path d="M403 661 c10 -48 41 -106 57 -106 8 0 24 19 34 43 15 32 25 42 43 42
27 0 27 -1 9 -45 -15 -34 -12 -45 10 -45 16 0 64 90 64 120 0 18 -6 20 -65 20
-60 0 -66 -2 -77 -25 -6 -14 -14 -25 -18 -25 -4 0 -12 11 -18 25 -6 14 -19 25
-28 25 -13 0 -15 -6 -11 -29z"/>
<path d="M700 675 c0 -29 42 -126 53 -122 7 2 16 13 22 25 12 28 18 28 30 0
15 -35 36 -28 52 17 22 63 33 65 33 6 l0 -52 47 3 c36 2 49 7 51 21 2 12 -3
17 -20 18 -17 1 -18 3 -5 6 25 7 21 41 -5 46 -20 4 -19 4 5 6 20 1 27 6 27 21
0 18 -7 20 -70 20 -61 0 -71 -3 -81 -22 l-12 -23 -10 23 c-13 28 -41 28 -54 0
l-10 -23 -7 23 c-8 24 -46 31 -46 7z"/>
<path d="M1004 676 c-3 -7 -4 -38 -2 -67 3 -53 4 -54 35 -57 18 -2 41 2 53 8
18 9 20 18 17 62 -3 28 -10 54 -18 59 -22 14 -79 11 -85 -5z"/>
<path d="M626 622 c-10 -17 12 -33 40 -30 18 2 30 10 32 21 3 13 -4 17 -32 17
-19 0 -37 -4 -40 -8z"/>
<path d="M845 375 c-5 -2 -32 -6 -58 -10 -36 -5 -47 -10 -43 -21 4 -10 -22
-23 -102 -48 -59 -19 -101 -35 -95 -35 7 -1 56 13 109 30 64 20 99 27 103 20
4 -7 31 4 71 29 54 33 62 51 15 35z"/>
<path d="M480 250 c-20 -6 -21 -8 -5 -8 11 0 29 3 40 8 25 11 -1 11 -35 0z"/>
<path d="M1670 384 l0 -245 23 3 22 3 3 243 2 242 -25 0 -25 0 0 -246z"/>
<path d="M1878 463 c-24 -6 -23 -9 18 -113 31 -77 39 -90 59 -90 19 0 29 12
54 65 17 36 35 65 41 65 5 0 10 -28 12 -62 3 -60 4 -63 28 -63 21 0 26 6 34
42 5 24 5 66 0 100 -8 49 -12 58 -32 61 -16 2 -25 -3 -31 -20 l-10 -23 0 23
c-1 39 -71 17 -71 -22 0 -8 -6 -19 -14 -26 -12 -9 -19 -4 -41 29 -14 23 -26
40 -28 40 -1 -1 -10 -3 -19 -6z"/>
<path d="M2162 462 c-9 -6 -12 -34 -10 -103 3 -89 4 -94 25 -97 17 -3 26 3 33
22 12 33 30 33 60 1 34 -36 65 -33 80 8 l13 32 6 -30 c5 -24 11 -30 31 -30 25
0 25 1 28 98 l3 97 -31 0 c-28 0 -30 -2 -30 -39 0 -56 -16 -60 -25 -5 -6 42
-8 45 -33 42 -22 -2 -28 -9 -30 -35 -2 -18 -6 -33 -9 -33 -3 0 -23 18 -43 40
-38 42 -46 45 -68 32z"/>
<path d="M2578 459 c-21 -12 -24 -39 -5 -39 30 -1 40 -20 46 -87 5 -59 9 -68
27 -71 25 -4 34 19 34 85 0 34 5 46 26 59 16 11 24 24 22 38 -3 19 -10 21 -68
23 -36 2 -73 -2 -82 -8z"/>
<path d="M2745 458 c-3 -8 -5 -55 -3 -104 3 -85 4 -89 27 -92 15 -2 28 3 33
12 11 20 32 20 48 1 16 -20 108 -20 134 0 26 20 82 19 90 0 3 -8 17 -15 31
-15 36 0 33 34 -12 125 -56 113 -76 111 -134 -14 -45 -96 -60 -97 -52 -2 4 48
2 59 -15 74 -28 25 -139 36 -147 15z"/>
<path d="M3193 460 c-30 -12 -63 -67 -63 -106 0 -66 94 -113 158 -80 57 29 35
60 -33 49 -26 -4 -40 -2 -46 8 -16 25 -10 48 17 66 21 14 29 14 46 4 15 -9 23
-9 34 0 22 18 17 37 -16 54 -32 17 -64 18 -97 5z"/>
<path d="M3357 462 c-16 -3 -17 -14 -15 -100 3 -85 5 -97 21 -100 11 -2 28 6
39 18 l20 21 22 -20 c21 -20 76 -29 76 -13 0 4 -11 24 -25 44 -31 46 -31 66
-1 111 13 19 22 38 18 41 -12 13 -42 5 -72 -20 -30 -26 -31 -26 -37 -6 -6 23
-19 30 -46 24z"/>
<path d="M3542 462 c-9 -6 -12 -34 -10 -103 l3 -94 75 0 c71 0 75 1 78 23 3
17 -2 25 -17 29 -24 6 -28 23 -6 23 9 0 15 9 15 25 0 16 -6 25 -15 25 -8 0
-15 5 -15 10 0 6 6 10 14 10 22 0 28 17 16 40 -9 16 -21 20 -68 20 -31 0 -63
-4 -70 -8z"/>
<path d="M3715 458 c-3 -8 -5 -55 -3 -104 3 -84 4 -89 26 -92 13 -2 25 3 28
12 8 20 38 21 54 1 7 -8 26 -15 42 -15 25 0 29 3 22 18 -5 9 -8 47 -6 83 3 83
-11 98 -97 106 -48 5 -62 3 -66 -9z"/>
<path d="M2460 371 c0 -5 -2 -16 -6 -24 -4 -10 5 -16 33 -20 55 -9 85 1 81 27
-3 18 -11 21 -55 24 -30 2 -53 -1 -53 -7z"/>
</g>
</svg>
